# xmcd
#
# Track frame offsets:
#  150
#  14477
#  32760
#  52212
#  73105
#  102430
#  124775
#  143045
#  166940
#  184110
#  203995
#  221060
#  239805
#  259232
#  274257
#  290250
#
# Disc length: 4246 seconds
#
# Revision: 0
# Processed by: cddbd v1.4PL0 Copyright (c) Steve Scherf et al.
# Submitted via: AltoMP3_Maker 3.0
#
DISCID=05109410
DTITLE=张学友等 - 浓情浪漫对白金曲
DYEAR=1900
DGENRE=
TTITLE0=天各一方
TTITLE1=心如止水
TTITLE2=你知不知道
TTITLE3=你喜欢的会有几个
TTITLE4=有空来坐坐
TTITLE5=烟火
TTITLE6=孤单的心痛
TTITLE7=天堂里有没有车来车往
TTITLE8=FLY  AWAY
TTITLE9=梅花三弄
TTITLE10=挥不去的思念
TTITLE11=红茶馆
TTITLE12=迟来的爱
TTITLE13=再坐一会
TTITLE14=渔火闪闪
TTITLE15=戒烟如你
EXTD=
EXTT0=
EXTT1=
EXTT2=
EXTT3=
EXTT4=
EXTT5=
EXTT6=
EXTT7=
EXTT8=
EXTT9=
EXTT10=
EXTT11=
EXTT12=
EXTT13=
EXTT14=
EXTT15=
PLAYORDER=
